<svg xmlns="http://www.w3.org/2000/svg" viewBox="0 0 1024 1024">
    <circle cx="512" cy="512" r="512" style="fill:#19216c"/>
    <path d="m 656.96166,656.93842 c 0,6.23312 -0.90603,12.3529 -2.37833,18.13272 C 699.20529,650.36533 729.444,602.767 729.444,548.14224 v -36.26538 c 0,-53.71811 -29.21943,-100.40982 -72.48234,-125.45561 -21.29168,-12.3529 -46.09423,-19.60597 -72.48231,-19.60597 H 439.51466 c -26.38809,0 -51.19063,7.25307 -72.48232,19.60597 C 323.76944,411.46704 294.55,458.15875 294.55,511.87686 V 656.93842 C 294.55,737.0623 359.44433,802 439.51466,802 h 144.96469 v 0 c 0,-40.00525 -32.50381,-72.53077 -72.48235,-72.53077 v 0 h -72.48234 c -39.97854,0 -72.48232,-32.52552 -72.48232,-72.53081 V 511.87686 c 0,-40.00528 32.50378,-72.5308 72.48232,-72.5308 h 144.96469 c 39.97854,0 72.48231,32.52552 72.48231,72.5308 v 36.26538 z m 0.0194,-0.30059 c 0,6.39978 -0.87269,12.21776 -2.32719,18.03573 44.79845,-24.7264 75.05194,-72.43382 75.05194,-126.83191 v -36.36236 c 0,-53.52539 -29.0899,-100.36011 -72.43385,-125.37741 -21.23562,-12.50866 -45.96204,-19.49023 -72.43385,-19.49023 h -145.1586 c -26.47181,0 -51.19822,7.27247 -72.43385,19.49023 -43.34395,25.0173 -72.43385,71.85202 -72.43385,125.37741 v 145.15854 c 0,79.9972 64.87048,145.15855 145.1586,145.15855 h 145.1586 v 0 c 0,-40.14405 -32.58069,-72.43383 -72.43385,-72.43383 v 0 h -72.43385 c -40.14406,0 -72.43385,-32.58067 -72.43385,-72.43382 V 511.77019 c 0,-40.14404 32.58069,-72.43382 72.43385,-72.43382 h 145.1586 c 40.14406,0 72.43385,32.58068 72.43385,72.43382 v 36.36236 108.50528 z M 574.65665,330.79618 c 6.10888,10.76326 9.89056,22.98101 9.89056,36.36236 26.47181,0 51.19823,7.27247 72.43385,19.49023 v -19.49023 c 0,-7.27247 -0.87269,-14.54494 -1.74539,-21.81742 -22.39922,-9.59966 -46.54384,-14.54494 -70.68846,-14.54494 z m -207.99279,55.85259 c 21.23563,-12.50866 45.96204,-19.49023 72.43385,-19.49023 0,-13.09045 3.49079,-25.5991 9.89057,-36.36236 h -9.89057 c -24.43551,0 -48.28923,4.94528 -70.68845,14.54494 -1.1636,6.98158 -1.7454,14.25405 -1.7454,21.81742 z m 82.32442,-55.85259 c 12.50866,-21.52652 36.07147,-36.36236 62.83418,-36.36236 26.76271,0 50.03463,14.54494 62.83419,36.36236 h 9.89056 c 24.43552,0 48.28924,4.94528 70.68846,14.54494 C 644.47241,275.52539 584.54721,222 511.82246,222 c -72.72475,0 -132.64994,53.52539 -143.4132,123.34112 22.39922,-9.59966 46.54384,-14.54494 70.68845,-14.54494 z m 135.26803,144.58256 h -145.1586 c -20.07203,0 -36.36237,16.29034 -36.36237,36.36236 v 145.15854 c 0,20.07203 16.29034,36.36236 36.36237,36.36236 h 145.1586 c 20.07204,0 36.36238,-16.29033 36.36238,-36.36236 v -36.36236 -9.89056 -98.90562 c 0,-20.07202 -16.29034,-36.36236 -36.36238,-36.36236 z m -36.07147,145.15854 h -72.43385 v -72.43382 h 72.43385 z m 108.7875,-72.73926 c 0,26.93086 -14.65858,50.33915 -36.36238,62.95232 v 9.7724 36.36236 c 0,20.11292 -16.24944,36.36236 -36.36237,36.36236 25.56728,0 49.43011,-6.59069 70.33847,-18.18118 1.47722,-5.79526 2.38628,-11.93139 2.38628,-18.18118 z m 0.009,0.0436 c 0,26.7627 -14.54495,50.32551 -36.36237,62.83416 v 9.89056 36.36236 c 0,20.07203 -16.29034,36.36236 -36.36238,36.36236 25.59912,0 49.45283,-6.69067 70.10666,-18.03573 1.4545,-5.81798 2.3272,-11.92685 2.3272,-18.03573 V 547.84165 Z" style="fill:#ffffff"/>
 </svg>
